<?xml version="1.0" encoding="utf-8"?>
<!-- Generator: Adobe Illustrator 16.0.4, SVG Export Plug-In . SVG Version: 6.00 Build 0)  -->
<!DOCTYPE svg PUBLIC "-//W3C//DTD SVG 1.1//EN" "http://www.w3.org/Graphics/SVG/1.1/DTD/svg11.dtd">
<svg version="1.1"
	 id="svg8" xmlns:dc="http://purl.org/dc/elements/1.1/" xmlns:cc="http://creativecommons.org/ns#" xmlns:rdf="http://www.w3.org/1999/02/22-rdf-syntax-ns#" xmlns:svg="http://www.w3.org/2000/svg" xmlns:sodipodi="http://sodipodi.sourceforge.net/DTD/sodipodi-0.dtd" xmlns:inkscape="http://www.inkscape.org/namespaces/inkscape" inkscape:export-filename="C:\Users\Jason Maa\Pictures\sysops\logo_badge.png" sodipodi:docname="logo_smallFront.svg" inkscape:version="0.92.1 r15371" inkscape:export-ydpi="627.75415" inkscape:export-xdpi="627.75415"
	 xmlns="http://www.w3.org/2000/svg" xmlns:xlink="http://www.w3.org/1999/xlink" x="0px" y="0px" width="56.397px"
	 height="57.404px" viewBox="108.555 248.862 56.397 57.404" enable-background="new 108.555 248.862 56.397 57.404"
	 xml:space="preserve">
<sodipodi:namedview  showgrid="false" inkscape:cy="752.86138" inkscape:cx="198.56098" inkscape:zoom="8.2219831" borderopacity="1.0" bordercolor="#666666" pagecolor="#ffffff" id="base" inkscape:pagecheckerboard="true" inkscape:window-maximized="1" inkscape:window-y="-8" inkscape:window-x="-8" inkscape:window-height="837" inkscape:window-width="1600" inkscape:pageshadow="2" inkscape:current-layer="layer1" inkscape:document-units="mm" inkscape:pageopacity="0.0">
	</sodipodi:namedview>
<g id="layer1" inkscape:label="Layer 1" inkscape:groupmode="layer">
	
		<path id="path6519-6" sodipodi:end="5.4613825" sodipodi:start="6.2610268" sodipodi:ry="9.8252897" sodipodi:rx="9.8260021" sodipodi:cy="97.882141" sodipodi:cx="48.318714" sodipodi:type="arc" inkscape:export-ydpi="627.75415" inkscape:export-xdpi="627.75415" stroke="#FFFFFF" stroke-width="0.265" stroke-linecap="round" stroke-linejoin="round" d="
		M164.813,276.844c0.294,13.247-8.786,24.866-21.712,27.784c-12.925,2.918-26.117-3.673-31.544-15.76
		c-5.428-12.087-1.587-26.325,9.183-34.044c10.771-7.719,25.487-6.782,35.192,2.239l-18.966,20.397L164.813,276.844z"/>
	
		<circle id="path6519" inkscape:export-ydpi="627.75415" inkscape:export-xdpi="627.75415" fill="#C80000" stroke="#FCFCFC" stroke-width="0.2924" stroke-linecap="round" stroke-linejoin="round" cx="136.873" cy="277.615" r="23.486">
	</circle>
	
		<rect id="rect4583" x="115.198" y="276.323" inkscape:export-ydpi="627.75415" inkscape:export-xdpi="627.75415" fill="none" width="14.448" height="12.449">
	</rect>
	
		<path id="rect4642" inkscape:export-ydpi="627.75415" inkscape:export-xdpi="627.75415" fill="none" stroke="#FFFFFF" stroke-width="0.265" stroke-linecap="round" stroke-linejoin="round" d="
		M146.113,273.533v10.804c0,0.322-0.262,0.583-0.583,0.583h-20.285c-0.322,0-0.583-0.261-0.583-0.583v-10.804
		c0-0.322,0.261-0.583,0.583-0.583h20.285C145.851,272.95,146.113,273.211,146.113,273.533z"/>
	
		<rect id="rect4689" x="140.976" y="284.92" inkscape:export-ydpi="627.75415" inkscape:export-xdpi="627.75415" fill="none" stroke="#FFFFFF" stroke-width="0.265" width="2.137" height="1.179">
	</rect>
	
		<rect id="rect4689-0" x="136.805" y="284.919" inkscape:export-ydpi="627.75415" inkscape:export-xdpi="627.75415" fill="none" stroke="#FFFFFF" stroke-width="0.265" width="2.137" height="1.179">
	</rect>
	
		<rect id="rect4689-0-1" x="132.636" y="284.919" inkscape:export-ydpi="627.75415" inkscape:export-xdpi="627.75415" fill="none" stroke="#FFFFFF" stroke-width="0.265" width="2.137" height="1.179">
	</rect>
	
		<rect id="rect4689-0-1-8" x="128.4" y="284.919" inkscape:export-ydpi="627.75415" inkscape:export-xdpi="627.75415" fill="none" stroke="#FFFFFF" stroke-width="0.265" width="2.137" height="1.179">
	</rect>
	
		<rect id="rect4689-4" x="140.976" y="271.741" inkscape:export-ydpi="627.75415" inkscape:export-xdpi="627.75415" fill="none" stroke="#FFFFFF" stroke-width="0.265" width="2.137" height="1.179">
	</rect>
	
		<rect id="rect4689-0-10" x="136.805" y="271.74" inkscape:export-ydpi="627.75415" inkscape:export-xdpi="627.75415" fill="none" stroke="#FFFFFF" stroke-width="0.265" width="2.137" height="1.179">
	</rect>
	
		<rect id="rect4689-0-1-6" x="132.636" y="271.74" inkscape:export-ydpi="627.75415" inkscape:export-xdpi="627.75415" fill="none" stroke="#FFFFFF" stroke-width="0.265" width="2.137" height="1.179">
	</rect>
	
		<rect id="rect4689-0-1-8-0" x="128.4" y="271.74" inkscape:export-ydpi="627.75415" inkscape:export-xdpi="627.75415" fill="none" stroke="#FFFFFF" stroke-width="0.265" width="2.137" height="1.179">
	</rect>
	
		<path id="path4848" inkscape:connector-curvature="0" inkscape:export-ydpi="627.75415" inkscape:export-xdpi="627.75415" fill="none" stroke="#FFFFFF" stroke-width="0.2646" d="
		M129.538,271.733v-5.245"/>
	
		<path id="path4848-4" inkscape:connector-curvature="0" inkscape:export-ydpi="627.75415" inkscape:export-xdpi="627.75415" fill="none" stroke="#FFFFFF" stroke-width="0.265" d="
		M133.689,271.437v-4.971"/>
	
		<path id="path4848-4-0" inkscape:connector-curvature="0" inkscape:export-ydpi="627.75415" inkscape:export-xdpi="627.75415" fill="none" stroke="#FFFFFF" stroke-width="0.265" d="
		M137.885,271.711v-4.972"/>
	
		<path id="path4797-5-6" inkscape:connector-curvature="0" inkscape:export-ydpi="627.75415" inkscape:export-xdpi="627.75415" fill="none" stroke="#FFFFFF" stroke-width="0.265" stroke-linejoin="round" d="
		M142.031,271.854v-1.982h-4.051"/>
	
		<g id="text4912" transform="matrix(1.5175863,0,0,1.4524931,210.46586,18.735141)" inkscape:export-ydpi="627.75415" inkscape:export-xdpi="627.75415">
		<path id="path4917" inkscape:connector-curvature="0" fill="#FFD700" d="M-53.415,179.697c0,0.193-0.082,0.352-0.248,0.475
			c-0.164,0.123-0.389,0.185-0.677,0.185c-0.161,0-0.299-0.016-0.414-0.05c-0.115-0.033-0.21-0.079-0.286-0.138
			c-0.074-0.057-0.129-0.125-0.165-0.202c-0.035-0.077-0.053-0.16-0.053-0.249c0-0.109,0.032-0.206,0.095-0.29
			c0.064-0.085,0.176-0.159,0.333-0.223v-0.009c-0.127-0.058-0.22-0.132-0.28-0.221c-0.059-0.089-0.089-0.192-0.089-0.309
			c0-0.173,0.08-0.314,0.241-0.425c0.16-0.111,0.369-0.166,0.625-0.166c0.27,0,0.481,0.05,0.633,0.151
			c0.153,0.1,0.23,0.233,0.23,0.4c0,0.104-0.033,0.196-0.097,0.277c-0.064,0.081-0.163,0.15-0.295,0.207v0.009
			c0.152,0.057,0.264,0.135,0.338,0.233C-53.451,179.449-53.415,179.564-53.415,179.697L-53.415,179.697z M-54.02,178.689
			c0-0.074-0.029-0.133-0.087-0.177c-0.057-0.044-0.133-0.066-0.227-0.066c-0.035,0-0.071,0.004-0.108,0.013
			c-0.036,0.009-0.069,0.022-0.1,0.038c-0.028,0.016-0.051,0.038-0.07,0.066c-0.019,0.026-0.028,0.056-0.028,0.091
			c0,0.057,0.016,0.103,0.048,0.135c0.033,0.032,0.088,0.064,0.162,0.096c0.027,0.012,0.064,0.027,0.111,0.044
			c0.048,0.017,0.106,0.036,0.172,0.057c0.045-0.053,0.077-0.1,0.097-0.142C-54.03,178.803-54.02,178.751-54.02,178.689
			L-54.02,178.689z M-53.975,179.722c0-0.07-0.017-0.123-0.053-0.16c-0.035-0.036-0.107-0.078-0.217-0.124
			c-0.032-0.015-0.079-0.033-0.14-0.054c-0.062-0.022-0.114-0.04-0.156-0.056c-0.042,0.038-0.08,0.084-0.114,0.139
			c-0.033,0.054-0.05,0.114-0.05,0.182c0,0.102,0.036,0.183,0.108,0.243c0.073,0.06,0.169,0.089,0.286,0.089
			c0.032,0,0.068-0.004,0.11-0.013c0.042-0.01,0.079-0.025,0.109-0.044c0.035-0.023,0.063-0.049,0.085-0.079
			C-53.985,179.815-53.975,179.774-53.975,179.722L-53.975,179.722z"/>
		<path id="path4919" inkscape:connector-curvature="0" fill="#FFD700" d="M-51.424,180.307h-1.456v-0.381h0.459v-1.153h-0.459
			v-0.356c0.07,0,0.138-0.004,0.202-0.012c0.064-0.009,0.118-0.023,0.161-0.044c0.051-0.024,0.089-0.056,0.114-0.095
			c0.026-0.039,0.041-0.088,0.044-0.147h0.485v1.806h0.45V180.307z"/>
		<path id="path4921" inkscape:connector-curvature="0" fill="#FFD700" d="M-49.123,179.804h-0.297v0.508h-0.537v-0.508h-1.056
			v-0.413l1.021-1.266h0.573v1.28h0.297V179.804z M-49.958,179.406v-0.788l-0.634,0.788H-49.958z"/>
		<path id="path4923" inkscape:connector-curvature="0" fill="#FFD700" d="M-47.725,179.548h-1.118v-0.422h1.118V179.548z"/>
		<path id="path4925" inkscape:connector-curvature="0" fill="#FFD700" d="M-46.105,180.307h-1.277v-0.387h0.357v-1.408h-0.357
			v-0.387h1.277v0.387h-0.358v1.408h0.358V180.307z"/>
		<path id="path4927" inkscape:connector-curvature="0" fill="#FFD700" d="M-44.421,178.794c0-0.055-0.012-0.102-0.034-0.141
			s-0.061-0.07-0.115-0.092c-0.039-0.016-0.083-0.025-0.134-0.028c-0.051-0.004-0.109-0.006-0.177-0.006h-0.203v0.588h0.173
			c0.089,0,0.165-0.004,0.225-0.013c0.061-0.009,0.111-0.029,0.153-0.06c0.039-0.03,0.068-0.064,0.085-0.1
			C-44.43,178.904-44.42,178.855-44.421,178.794L-44.421,178.794z M-43.543,180.307h-0.687l-0.595-0.8h-0.259v0.8h-0.559v-2.181
			h0.943c0.129,0,0.239,0.007,0.332,0.022c0.093,0.015,0.18,0.046,0.261,0.095c0.082,0.049,0.147,0.112,0.194,0.19
			c0.049,0.077,0.073,0.174,0.073,0.291c0,0.161-0.037,0.292-0.113,0.394c-0.075,0.102-0.181,0.186-0.32,0.253L-43.543,180.307z"/>
	</g>
	
		<rect id="rect4737" x="115.198" y="276.323" inkscape:export-ydpi="627.75415" inkscape:export-xdpi="627.75415" fill="none" width="14.448" height="12.449">
	</rect>
	
		<path id="rect4739" inkscape:export-ydpi="627.75415" inkscape:export-xdpi="627.75415" fill="none" stroke="#FFFFFF" stroke-width="0.265" stroke-linecap="round" stroke-linejoin="round" d="
		M146.113,273.533v10.804c0,0.322-0.262,0.583-0.583,0.583h-20.285c-0.322,0-0.583-0.261-0.583-0.583v-10.804
		c0-0.322,0.261-0.583,0.583-0.583h20.285C145.851,272.95,146.113,273.211,146.113,273.533z"/>
	
		<rect id="rect4741" x="140.976" y="284.92" inkscape:export-ydpi="627.75415" inkscape:export-xdpi="627.75415" fill="none" stroke="#FFFFFF" stroke-width="0.265" width="2.137" height="1.179">
	</rect>
	
		<rect id="rect4743" x="136.805" y="284.919" inkscape:export-ydpi="627.75415" inkscape:export-xdpi="627.75415" fill="none" stroke="#FFFFFF" stroke-width="0.265" width="2.137" height="1.179">
	</rect>
	
		<rect id="rect4745" x="132.636" y="284.919" inkscape:export-ydpi="627.75415" inkscape:export-xdpi="627.75415" fill="none" stroke="#FFFFFF" stroke-width="0.265" width="2.137" height="1.179">
	</rect>
	
		<rect id="rect4747" x="128.4" y="284.919" inkscape:export-ydpi="627.75415" inkscape:export-xdpi="627.75415" fill="none" stroke="#FFFFFF" stroke-width="0.265" width="2.137" height="1.179">
	</rect>
	
		<rect id="rect4749" x="140.976" y="271.741" inkscape:export-ydpi="627.75415" inkscape:export-xdpi="627.75415" fill="none" stroke="#FFFFFF" stroke-width="0.265" width="2.137" height="1.179">
	</rect>
	
		<rect id="rect4751" x="136.805" y="271.74" inkscape:export-ydpi="627.75415" inkscape:export-xdpi="627.75415" fill="none" stroke="#FFFFFF" stroke-width="0.265" width="2.137" height="1.179">
	</rect>
	
		<rect id="rect4753" x="132.636" y="271.74" inkscape:export-ydpi="627.75415" inkscape:export-xdpi="627.75415" fill="none" stroke="#FFFFFF" stroke-width="0.265" width="2.137" height="1.179">
	</rect>
	
		<rect id="rect4755" x="128.4" y="271.74" inkscape:export-ydpi="627.75415" inkscape:export-xdpi="627.75415" fill="none" stroke="#FFFFFF" stroke-width="0.265" width="2.137" height="1.179">
	</rect>
	
		<path id="path4765" inkscape:connector-curvature="0" inkscape:export-ydpi="627.75415" inkscape:export-xdpi="627.75415" fill="none" stroke="#FFFFFF" stroke-width="0.2646" d="
		M129.538,271.733v-5.245"/>
	
		<path id="path4767" inkscape:connector-curvature="0" inkscape:export-ydpi="627.75415" inkscape:export-xdpi="627.75415" fill="none" stroke="#FFFFFF" stroke-width="0.265" d="
		M133.689,271.437v-4.971"/>
	
		<path id="path4769" inkscape:connector-curvature="0" inkscape:export-ydpi="627.75415" inkscape:export-xdpi="627.75415" fill="none" stroke="#FFFFFF" stroke-width="0.265" d="
		M137.885,271.711v-4.972"/>
	
		<path id="path4771" inkscape:connector-curvature="0" inkscape:export-ydpi="627.75415" inkscape:export-xdpi="627.75415" fill="none" stroke="#FFFFFF" stroke-width="0.265" stroke-linejoin="round" d="
		M142.031,271.854v-1.982h-4.051"/>
	
		<g id="g4786" transform="matrix(1.5175863,0,0,1.4524931,210.46586,18.735141)" inkscape:export-ydpi="627.75415" inkscape:export-xdpi="627.75415">
		<path id="path4773" inkscape:connector-curvature="0" fill="#FFD700" d="M-53.415,179.697c0,0.193-0.082,0.352-0.248,0.475
			c-0.164,0.123-0.389,0.185-0.677,0.185c-0.161,0-0.299-0.016-0.414-0.05c-0.115-0.033-0.21-0.079-0.286-0.138
			c-0.074-0.057-0.129-0.125-0.165-0.202c-0.035-0.077-0.053-0.16-0.053-0.249c0-0.109,0.032-0.206,0.095-0.29
			c0.064-0.085,0.176-0.159,0.333-0.223v-0.009c-0.127-0.058-0.22-0.132-0.28-0.221c-0.059-0.089-0.089-0.192-0.089-0.309
			c0-0.173,0.08-0.314,0.241-0.425c0.16-0.111,0.369-0.166,0.625-0.166c0.27,0,0.481,0.05,0.633,0.151
			c0.153,0.1,0.23,0.233,0.23,0.4c0,0.104-0.033,0.196-0.097,0.277c-0.064,0.081-0.163,0.15-0.295,0.207v0.009
			c0.152,0.057,0.264,0.135,0.338,0.233C-53.451,179.449-53.415,179.564-53.415,179.697L-53.415,179.697z M-54.02,178.689
			c0-0.074-0.029-0.133-0.087-0.177c-0.057-0.044-0.133-0.066-0.227-0.066c-0.035,0-0.071,0.004-0.108,0.013
			c-0.036,0.009-0.069,0.022-0.1,0.038c-0.028,0.016-0.051,0.038-0.07,0.066c-0.019,0.026-0.028,0.056-0.028,0.091
			c0,0.057,0.016,0.103,0.048,0.135c0.033,0.032,0.088,0.064,0.162,0.096c0.027,0.012,0.064,0.027,0.111,0.044
			c0.048,0.017,0.106,0.036,0.172,0.057c0.045-0.053,0.077-0.1,0.097-0.142C-54.03,178.803-54.02,178.751-54.02,178.689
			L-54.02,178.689z M-53.974,179.722c0-0.07-0.017-0.123-0.053-0.16c-0.035-0.036-0.107-0.078-0.217-0.124
			c-0.032-0.015-0.079-0.033-0.14-0.054c-0.062-0.022-0.114-0.04-0.156-0.056c-0.042,0.038-0.08,0.084-0.114,0.139
			c-0.033,0.054-0.05,0.114-0.05,0.182c0,0.102,0.036,0.183,0.108,0.243c0.073,0.06,0.169,0.089,0.286,0.089
			c0.032,0,0.068-0.004,0.11-0.013c0.042-0.01,0.079-0.025,0.109-0.044c0.035-0.023,0.063-0.049,0.085-0.079
			C-53.985,179.815-53.974,179.774-53.974,179.722L-53.974,179.722z"/>
		<path id="path4775" inkscape:connector-curvature="0" fill="#FFD700" d="M-51.424,180.307h-1.456v-0.381h0.459v-1.153h-0.459
			v-0.356c0.07,0,0.138-0.004,0.202-0.012c0.064-0.009,0.118-0.023,0.161-0.044c0.051-0.024,0.089-0.056,0.114-0.095
			c0.026-0.039,0.041-0.088,0.044-0.147h0.485v1.806h0.45V180.307z"/>
		<path id="path4778" inkscape:connector-curvature="0" fill="#FFD700" d="M-49.123,179.804h-0.297v0.508h-0.537v-0.508h-1.056
			v-0.413l1.021-1.266h0.573v1.28h0.297V179.804z M-49.958,179.406v-0.788l-0.634,0.788H-49.958z"/>
		<path id="path4780" inkscape:connector-curvature="0" fill="#FFD700" d="M-47.725,179.548h-1.118v-0.422h1.118V179.548z"/>
		<path id="path4782" inkscape:connector-curvature="0" fill="#FFD700" d="M-46.105,180.307h-1.277v-0.387h0.357v-1.408h-0.357
			v-0.387h1.277v0.387h-0.358v1.408h0.358V180.307z"/>
		<path id="path4784" inkscape:connector-curvature="0" fill="#FFD700" d="M-44.42,178.794c0-0.055-0.012-0.102-0.034-0.141
			s-0.061-0.07-0.115-0.092c-0.039-0.016-0.083-0.025-0.134-0.028c-0.051-0.004-0.109-0.006-0.177-0.006h-0.203v0.588h0.173
			c0.089,0,0.165-0.004,0.225-0.013c0.061-0.009,0.111-0.029,0.153-0.06c0.039-0.03,0.068-0.064,0.085-0.1
			C-44.429,178.904-44.42,178.855-44.42,178.794L-44.42,178.794z M-43.543,180.307h-0.687l-0.595-0.8h-0.259v0.8h-0.559v-2.181
			h0.943c0.129,0,0.239,0.007,0.332,0.022c0.093,0.015,0.18,0.046,0.261,0.095c0.082,0.049,0.147,0.112,0.194,0.19
			c0.049,0.077,0.073,0.174,0.073,0.291c0,0.161-0.037,0.292-0.113,0.394c-0.075,0.102-0.181,0.186-0.32,0.253L-43.543,180.307z"/>
	</g>
	
		<rect id="rect4985" x="115.198" y="276.323" inkscape:export-ydpi="627.75415" inkscape:export-xdpi="627.75415" fill="none" width="14.448" height="12.449">
	</rect>
	
		<path id="rect4987" inkscape:export-ydpi="627.75415" inkscape:export-xdpi="627.75415" fill="none" stroke="#FFFFFF" stroke-width="0.265" stroke-linecap="round" stroke-linejoin="round" d="
		M146.113,273.533v10.804c0,0.322-0.262,0.583-0.583,0.583h-20.285c-0.322,0-0.583-0.261-0.583-0.583v-10.804
		c0-0.322,0.261-0.583,0.583-0.583h20.285C145.851,272.95,146.113,273.211,146.113,273.533z"/>
	
		<rect id="rect4989" x="140.976" y="284.92" inkscape:export-ydpi="627.75415" inkscape:export-xdpi="627.75415" fill="none" stroke="#FFFFFF" stroke-width="0.265" width="2.137" height="1.179">
	</rect>
	
		<rect id="rect4991" x="136.805" y="284.919" inkscape:export-ydpi="627.75415" inkscape:export-xdpi="627.75415" fill="none" stroke="#FFFFFF" stroke-width="0.265" width="2.137" height="1.179">
	</rect>
	
		<rect id="rect4993" x="132.636" y="284.919" inkscape:export-ydpi="627.75415" inkscape:export-xdpi="627.75415" fill="none" stroke="#FFFFFF" stroke-width="0.265" width="2.137" height="1.179">
	</rect>
	
		<rect id="rect4995" x="128.4" y="284.919" inkscape:export-ydpi="627.75415" inkscape:export-xdpi="627.75415" fill="none" stroke="#FFFFFF" stroke-width="0.265" width="2.137" height="1.179">
	</rect>
	
		<rect id="rect4997" x="140.976" y="271.741" inkscape:export-ydpi="627.75415" inkscape:export-xdpi="627.75415" fill="none" stroke="#FFFFFF" stroke-width="0.265" width="2.137" height="1.179">
	</rect>
	
		<rect id="rect4999" x="136.805" y="271.74" inkscape:export-ydpi="627.75415" inkscape:export-xdpi="627.75415" fill="none" stroke="#FFFFFF" stroke-width="0.265" width="2.137" height="1.179">
	</rect>
	
		<rect id="rect5001" x="132.636" y="271.74" inkscape:export-ydpi="627.75415" inkscape:export-xdpi="627.75415" fill="none" stroke="#FFFFFF" stroke-width="0.265" width="2.137" height="1.179">
	</rect>
	
		<rect id="rect5003" x="128.4" y="271.74" inkscape:export-ydpi="627.75415" inkscape:export-xdpi="627.75415" fill="none" stroke="#FFFFFF" stroke-width="0.265" width="2.137" height="1.179">
	</rect>
	
		<path id="path5011" inkscape:connector-curvature="0" inkscape:export-ydpi="627.75415" inkscape:export-xdpi="627.75415" sodipodi:nodetypes="cccc" fill="none" stroke="#FEFEFE" stroke-width="0.2929" stroke-linejoin="round" d="
		M142.241,285.826v3.428l4.08,0.031l0.097,3.862"/>
	
		<path id="path5013" inkscape:connector-curvature="0" inkscape:export-ydpi="627.75415" inkscape:export-xdpi="627.75415" fill="none" stroke="#FFFFFF" stroke-width="0.265" d="
		M129.538,271.733v-21.299"/>
	
		<path id="path5015" inkscape:connector-curvature="0" inkscape:export-ydpi="627.75415" inkscape:export-xdpi="627.75415" fill="none" stroke="#FFFFFF" stroke-width="0.265" d="
		M133.689,271.437v-4.971"/>
	
		<path id="path5017" inkscape:connector-curvature="0" inkscape:export-ydpi="627.75415" inkscape:export-xdpi="627.75415" fill="none" stroke="#FFFFFF" stroke-width="0.265" d="
		M137.885,271.711v-8.197"/>
	
		<path id="path5019" inkscape:connector-curvature="0" inkscape:export-ydpi="627.75415" inkscape:export-xdpi="627.75415" fill="none" stroke="#FFFFFF" stroke-width="0.265" stroke-linejoin="round" d="
		M142.031,271.854v-1.982h-4.051"/>
	
		<circle id="circle4977-1-4-6-2" inkscape:export-ydpi="627.75415" inkscape:export-xdpi="627.75415" fill="#C80000" stroke="#FFD700" stroke-width="0.265" stroke-linecap="round" stroke-linejoin="round" cx="129.587" cy="250.524" r="1.044">
	</circle>
	
		<circle id="circle4977-1-4-6-2-3" inkscape:export-ydpi="627.75415" inkscape:export-xdpi="627.75415" fill="none" stroke="#FFD700" stroke-width="0.265" stroke-linecap="round" stroke-linejoin="round" cx="133.695" cy="265.584" r="1.044">
	</circle>
	
		<circle id="circle4977-1-4-6-2-3-9" inkscape:export-ydpi="627.75415" inkscape:export-xdpi="627.75415" fill="none" stroke="#FFD700" stroke-width="0.265" stroke-linecap="round" stroke-linejoin="round" cx="137.905" cy="262.795" r="1.044">
	</circle>
	
		<path id="path5015-4" inkscape:connector-curvature="0" inkscape:export-ydpi="627.75415" inkscape:export-xdpi="627.75415" fill="none" stroke="#FFFFFF" stroke-width="0.265" d="
		M137.831,300.563v-14.311"/>
	
		<path id="path5015-4-7" inkscape:connector-curvature="0" inkscape:export-ydpi="627.75415" inkscape:export-xdpi="627.75415" fill="none" stroke="#FFFFFF" stroke-width="0.265" d="
		M133.59,304.953v-18.746"/>
	
		<circle id="circle4977-1-4-6-2-3-3" inkscape:export-ydpi="627.75415" inkscape:export-xdpi="627.75415" fill="#C80000" stroke="#FFD700" stroke-width="0.265" stroke-linecap="round" stroke-linejoin="round" cx="133.567" cy="305.089" r="1.044">
	</circle>
	
		<circle id="circle4977-1-4-6-2-3-3-4" inkscape:export-ydpi="627.75415" inkscape:export-xdpi="627.75415" fill="#C80000" stroke="#FFD700" stroke-width="0.265" stroke-linecap="round" stroke-linejoin="round" cx="137.946" cy="300.939" r="1.044">
	</circle>
	
		<circle id="circle4977-1-4-6-2-3-3-4-4" inkscape:export-ydpi="627.75415" inkscape:export-xdpi="627.75415" fill="none" stroke="#FFD700" stroke-width="0.265" stroke-linecap="round" stroke-linejoin="round" cx="146.52" cy="294.006" r="1.044">
	</circle>
	
		<path id="path6476" inkscape:connector-curvature="0" inkscape:export-ydpi="627.75415" inkscape:export-xdpi="627.75415" sodipodi:nodetypes="ccc" fill="none" stroke="#FFFFFF" stroke-width="0.265" d="
		M129.573,286.254v4.496h-12.033"/>
	
		<circle id="circle4977-1-4-6-2-3-3-2" inkscape:export-ydpi="627.75415" inkscape:export-xdpi="627.75415" fill="#C80000" stroke="#FFD700" stroke-width="0.265" stroke-linecap="round" stroke-linejoin="round" cx="117.477" cy="290.803" r="1.044">
	</circle>
	<g id="g6513" transform="rotate(180,53.75471,95.283123)" inkscape:export-ydpi="627.75415" inkscape:export-xdpi="627.75415">
		<path id="path6476-5" inkscape:connector-curvature="0" fill="none" stroke="#FFFFFF" stroke-width="0.2646" d="M-34.521-79.305
			v4.437h-6.957"/>
		
			<circle id="circle4977-1-4-6-2-3-3-2-5" inkscape:export-ydpi="627.75415" inkscape:export-xdpi="627.75415" fill="none" stroke="#FFD700" stroke-width="0.265" stroke-linecap="round" stroke-linejoin="round" cx="-42.344" cy="-74.868" r="1.044">
		</circle>
	</g>
	
		<path id="path6519-2" inkscape:connector-curvature="0" inkscape:export-ydpi="627.75415" inkscape:export-xdpi="627.75415" fill="none" stroke="#FFD700" stroke-width="0.265" stroke-linecap="round" stroke-linejoin="round" d="
		M0,0"/>
	
		<path id="path6701" inkscape:connector-curvature="0" inkscape:export-ydpi="627.75415" inkscape:export-xdpi="627.75415" sodipodi:nodetypes="cc" fill="none" stroke="#FFFFFF" stroke-width="0.265" d="
		M164.813,276.844l-12.522,0.15"/>
	
		<circle id="circle4977-1-4-6-2-3-9-8" inkscape:export-ydpi="627.75415" inkscape:export-xdpi="627.75415" fill="none" stroke="#FFD700" stroke-width="0.265" stroke-linecap="round" stroke-linejoin="round" cx="151.643" cy="276.857" r="1.044">
	</circle>
	
		<circle id="circle4977-1-4-6-2-8" inkscape:export-ydpi="627.75415" inkscape:export-xdpi="627.75415" fill="#C80000" stroke="#FFD700" stroke-width="0.265" stroke-linecap="round" stroke-linejoin="round" cx="152.564" cy="260.506" r="1.044">
	</circle>
</g>
</svg>
